<?xml version="1.0" encoding="utf-8"?>
<svg version="1.1" id="id1" xmlns="http://www.w3.org/2000/svg" xmlns:xlink="http://www.w3.org/1999/xlink" x="0px" y="0px"
	 viewBox="0 0 16 16" style="enable-background:new 0 0 16 16;" xml:space="preserve">
<style type="text/css">
	.st0{fill:#DAAF77;}
	.st1{fill:#040E0C;}
	.st2{fill:#3E5467;}
</style>
<path class="st0" d="M15.9,14.4c-0.2-0.8-0.2-0.7-0.3-0.8c-0.2-0.4-0.2-0.4-0.2-0.6c0-0.2,0-0.4,0-0.5c0-0.2,0.1-0.2,0.1-0.4
	c0.1-0.2,0.1-0.6,0-0.8c0,0-0.1-0.1-0.2-0.2c0-0.1-0.1-0.1,0-0.2c0-0.1,0.1-0.1,0.2-0.1c0,0-0.1-0.6-0.4-1.1
	c-0.2-0.2-0.3-0.4-0.3-0.4C14.5,9,14.4,9,14.3,8.8c0-0.1-0.2-0.4,0-0.5c0.1-0.1,0.2-0.1,0.5-0.2c0.3-0.1,0.4-0.2,0.4-0.2
	c0-0.1,0-0.1,0-0.3c0-0.3,0-0.3,0-0.4c0-0.1-0.1-0.1-0.2-0.3c-0.1-0.1-0.1-0.1-0.3-0.5c-0.1-0.2-0.2-0.4-0.3-0.5
	c-0.2-0.3-0.2-0.3-0.3-0.5c-0.1-0.2-0.1-0.3-0.1-0.5c-0.1-0.4,0-0.4,0-0.6c-0.1-0.3-0.3-0.3-0.5-0.6c-0.2-0.2-0.3-0.4-0.4-0.6
	c-0.2-0.4-0.7-1.1-1-1.4c-0.4-0.4-1.1-0.5-2.5-0.8C8.1,0.3,7.5,0.2,7,0.2C5.9,0.3,5,0.6,4.6,0.8C3.7,1.1,3.2,1.6,2.2,2.5
	C1.5,3,1.2,3.3,0.9,3.7C0,5,0,6.5,0,6.9c0.1,1.7,0.9,2.9,1.5,3.8c0.1,0.1,0.5,0.6,1.1,1.2c0.4,0.4,0.7,0.6,1.2,0.9
	c0.7,0.3,1.4,0.4,1.5,0.2c0-0.1-0.1-0.3,0-0.3c0.1,0,0.1,0.1,0.2,0c0.1,0,0.1,0,0.1-0.1c0.1-0.1,0.2,0,0.3-0.1C6,12.4,6,12.2,6,12.1
	c0-0.1-0.1-0.2,0-0.2c0,0,0,0,0.1,0c0.1,0.1,0.4,0.1,0.6,0c0.1-0.1,0.1-0.1,0.2-0.1c0.1,0,0.1,0.1,0.2,0.1c0.3,0.4,0.3,0.7,0.5,0.9
	c0,0,0.1,0.1,0.1,0.1c0.1,0.1,0,0.2,0.1,0.3c0,0.1,0.1,0,0.2,0.1c0.1,0.1,0.1,0.2,0,0.5c0,0.2,0,0.2,0,0.3c0,0.1,0.1,0.2,0.4,0.5
	c0.1,0.1,0.3,0.3,0.6,0.4c0.1,0.1,0.3,0.1,0.5,0.1c0.4,0.1,0.6,0.1,0.9,0.1c0.8,0,1,0.3,2,0.4c0.2,0,0.8,0.1,1.5,0
	c0,0,0.8-0.1,1.7-0.5c0.2-0.1,0.5-0.2,0.5-0.5C16,14.6,16,14.6,15.9,14.4z M10.8,10.7c0,0-0.1,0-0.1,0c-0.1,0.1,0.1,0.5,0,0.6
	c-0.1,0-0.2,0-0.3-0.1c-0.1,0-0.1-0.1-0.1-0.1c-0.1-0.1-0.1-0.2-0.1-0.3c0-0.1,0-0.1-0.1-0.1c0,0-0.1,0-0.1,0
	c-0.1,0-0.1,0.2-0.1,0.3c-0.1,0.3-0.6,0.5-0.7,0.4c0,0,0-0.1,0-0.2c0-0.1,0-0.5-0.1-0.7c-0.1-0.2-0.4-0.3-0.5-0.2c0,0,0,0.1,0,0.2
	c0,0.2,0.1,0.3,0.1,0.3c0,0.1-0.1,0.1-0.2,0.2c-0.1,0.1-0.1,0.2-0.2,0.2c-0.2,0.2-0.7,0.1-1-0.2C7,10.9,7,10.8,6.9,10.8
	c-0.1,0-0.2,0-0.3-0.1c-0.1-0.1-0.2-0.2-0.1-0.3c0.1-0.1,0.3,0.1,0.6,0c0,0,0.1,0,0.2-0.1c0.1,0,0.2-0.1,0.2-0.1c0.3-0.1,1,0,1,0
	c0.5,0,1.2,0.1,1.2-0.1c0,0,0-0.1,0-0.1c0.1-0.1,0.2,0,0.3,0.1c0,0,0,0.1,0.1,0.1c0.1,0.1,0.2,0,0.2,0.1c0,0,0,0.1,0.1,0.1
	C10.5,10.6,10.8,10.6,10.8,10.7z"/>
<path id="dexter-oculus" class="st1" d="M10.6,5.1C10.5,5.1,10.5,5,10.5,5c-0.1-0.1-0.1-0.1-0.1-0.1c-0.1,0-0.1,0-0.2,0
	c-0.1,0-0.2,0-0.3,0.1C9.8,5,9.8,5,9.7,5.1c-0.1,0-0.2,0.1-0.2,0.1C9.3,5.2,9,5.3,8.9,5.5C8.6,5.7,8.4,5.9,8.3,6
	c0,0-0.1,0.1-0.1,0.1c0,0.1-0.1,0.1-0.1,0.1c-0.1,0-0.1,0-0.1,0c0,0,0,0-0.1,0.2l0,0l0,0c0,0-0.1,0-0.1,0c0,0-0.2,0.4,0,0.9
	C8.1,7.8,8.6,8,8.8,8.1c0.6,0.3,1.2,0.1,1.4,0c0.2,0,1-0.3,1.3-1c0.1-0.3,0.1-0.7,0-0.8c-0.1-0.1-0.1-0.1-0.1-0.1
	c-0.1,0-0.1,0-0.2,0c-0.1,0-0.2,0-0.3,0c-0.1,0-0.2,0-0.2-0.1c-0.1-0.1-0.1-0.1-0.1-0.3c0,0,0-0.1,0-0.2c0-0.2,0-0.2,0-0.2
	c0-0.1,0.1-0.1,0.1-0.2C10.7,5.2,10.7,5.2,10.6,5.1z"/>
<path id="sinister-oculus" class="st1" d="M12.6,4c-0.1,0.1-0.1,0.1-0.2,0.3c-0.1,0.1-0.1,0.1-0.1,0.3c-0.1,0.1-0.1,0.2-0.1,0.2
	c-0.1,0.1-0.1,0.1-0.1,0.1C12,4.9,12,5,12,5.1c0,0.1,0,0.1,0,0.2c0,0,0,0.1,0.2,0.2c0.1,0.1,0.1,0.1,0.2,0.1c0.1,0,0.1,0,0.2,0
	c0.1,0,0.2,0.1,0.2,0.1c0.1,0.1,0.1,0.1,0.2,0.2C13,5.9,13,6,13,6c0,0,0,0.1,0,0.1c0,0.1,0,0.1,0,0.1c0,0.1,0,0,0.1,0.1
	c0,0.1,0,0.1,0.1,0.1c0,0,0.1,0,0.1,0.1c0,0,0,0.1,0,0.1c0,0,0.1,0,0.1,0c0.1-0.1,0.5,0.1,0.7,0c0.1-0.1,0.2-0.2,0.2-0.3
	c0,0,0-0.1,0-0.2c0-0.1,0-0.1,0-0.2c0-0.1,0-0.1,0-0.2c0-0.1,0-0.1-0.1-0.2c0-0.1-0.1-0.1-0.1-0.2c0-0.1-0.1-0.1-0.1-0.2
	c-0.1-0.1-0.1-0.1-0.1-0.1c-0.1-0.2,0.1-0.5,0-0.9c0-0.1-0.1-0.3-0.2-0.3c-0.1,0-0.1,0-0.2,0C12.9,4,12.8,3.9,12.6,4z"/>
<path id="nasus" class="st1" d="M13,6.5C12.9,6.5,12.9,6.5,13,6.5c-0.1-0.1,0-0.1,0-0.2c0-0.1,0-0.1-0.1-0.1c0,0,0,0-0.1,0
	c0,0-0.1,0-0.1,0c-0.1,0-0.1,0-0.2,0c0,0-0.1,0-0.1,0.3c0,0.2,0,0.2,0,0.2c-0.1,0.6-0.1,0.9-0.1,1.3c0,0.1,0,0.2,0.1,0.4
	c0.1,0.1,0.2,0.3,0.3,0.3c0,0,0.1,0.1,0.1,0.1c0,0,0.1-0.1,0.1-0.1C12.9,8.6,13,8.5,13,8.5c0.1-0.1,0-0.2,0-0.3c0,0,0-0.1,0.1-0.1
	c0.1,0,0.2,0,0.2,0c0.1,0.1,0,0.1,0.1,0.2l0,0c0.1,0.1,0.1,0.1,0.1,0.1c0,0,0.1,0,0.1,0c0,0,0,0,0,0c0,0,0-0.1,0-0.1
	c0-0.1,0-0.1,0-0.2c0,0,0,0,0,0c0,0-0.1,0-0.1,0c0,0,0,0,0,0c0,0,0,0,0-0.1c0,0,0,0,0-0.1c0,0,0,0,0-0.1c0-0.1,0-0.1,0-0.1
	c0,0,0,0,0-0.1c0,0,0,0-0.1,0c0,0-0.1,0-0.1,0c0,0,0,0,0,0c0-0.1,0-0.2,0-0.2c0.1-0.2-0.1-0.4-0.2-0.6C13,6.6,13,6.5,13,6.5z"/>
<path id="dentes" class="st1" d="M10.6,11.4c0.1-0.1,0.3,0.1,0.3,0c0,0,0-0.1,0-0.1c0,0,0.1,0,0.1,0c0,0,0,0,0,0.1
	c0,0.1,0.1,0,0.2,0c0.1,0,0.2,0,0.2-0.1c0,0,0-0.1,0-0.1c0,0,0.1,0,0.1,0c0.1,0,0.1,0,0.2,0c0.1,0,0-0.1,0.1-0.1c0.1,0,0.1,0,0.2,0
	c0.1,0,0.1,0,0.2-0.1c0-0.1,0-0.1,0-0.2c0,0,0-0.1,0-0.1c0.1-0.1,0.2,0,0.4-0.1c0.1,0,0.1,0,0.2-0.1c0,0,0-0.1,0.1-0.1
	c0,0,0.1,0,0.1,0c0,0,0.1,0,0.1,0c0.1,0,0.1,0,0.3-0.1c0.1,0,0.2-0.1,0.2-0.1c0.1,0,0.1,0,0.2,0c0,0,0.1,0,0.1,0c0,0,0.1,0,0.1-0.1
	c0.1-0.1,0.1,0,0.2-0.1c0,0,0-0.1,0.1-0.1c0,0,0.1,0,0.1,0c0.1,0,0.1,0,0.1,0c0,0,0.1,0,0.1-0.1c0.1-0.1,0.1-0.1,0.1-0.1
	c0,0,0.1,0,0.1,0c0.1,0.1,0,0.2,0,0.4c0,0.3,0.2,0.3,0.2,0.6c0,0,0,0.1-0.1,0.2c0,0-0.1,0-0.1,0c0,0,0,0,0,0.1c0,0.1,0,0.1,0,0.1
	c0,0,0.1,0,0.1,0c0,0,0.1,0.1,0.1,0.1c0,0.1,0,0.2,0,0.4c0,0.1,0,0.2-0.1,0.4c0,0,0,0.1-0.1,0.1c-0.1,0-0.2,0-0.2,0c0,0,0,0,0,0
	c0,0-0.1,0-0.2,0c-0.1,0-0.1,0.1-0.1,0.1c-0.1,0-0.1,0-0.1,0c0,0,0,0-0.1,0.1c0,0.1,0,0.1-0.1,0.1c0,0,0,0-0.1,0
	c-0.1,0-0.1,0-0.1,0.1c0,0,0,0,0,0.1c0,0.1-0.1,0-0.2,0c0,0,0,0.1-0.1,0.1c-0.1,0.1,0,0.1-0.1,0.1c-0.1,0.1-0.2,0.1-0.2,0.1
	c-0.1,0,0-0.1-0.1-0.1c-0.1,0-0.1,0-0.3,0c-0.1,0-0.2,0-0.2,0c-0.1,0-0.1,0.1-0.2,0.1c-0.1,0.1-0.2,0-0.4,0c-0.1,0-0.2,0-0.2,0.1
	c-0.1,0-0.1,0.1-0.1,0.1c-0.1,0.1-0.2,0.1-0.3,0.1c0,0-0.1,0-0.2-0.1c-0.1,0-0.1-0.1-0.2-0.1c-0.1-0.1-0.1-0.1-0.2-0.1
	c-0.1,0-0.1,0-0.2,0c-0.1,0-0.1-0.1-0.2-0.1c-0.1,0-0.1,0-0.1,0c0,0,0.1,0,0.2-0.1c0,0,0-0.1,0-0.2c0-0.1,0-0.1,0-0.2
	c0-0.1,0-0.2,0-0.2c-0.1-0.1-0.1,0-0.3-0.1c-0.1,0-0.1,0-0.1-0.1c-0.1-0.1-0.1-0.1,0-0.3C10.6,11.5,10.6,11.4,10.6,11.4z"/>
<path class="st2" d="M10,10.6c0,0-0.1,0.1-0.1,0.1c0,0,0,0.1-0.1,0.1c0,0.1-0.1,0.2-0.1,0.3c-0.1,0.1-0.1,0.1-0.2,0.2
	c-0.1,0.1-0.2,0.1-0.3,0.1c0,0-0.1,0-0.1,0c0,0-0.1,0.1,0,0.1c0,0,0,0,0.1,0.1c0.1,0.1,0.1,0.2,0.1,0.2c0,0.2,0.2,0.5,0.3,0.7
	c0.1,0.1,0.1,0.2,0.3,0.3c0.2,0.2,0.4,0.2,0.7,0.2c0.2,0,0.2,0,0.3,0c0.1-0.1,0.1-0.1,0.2-0.1c0.1,0,0.1,0,0.1,0c0,0,0-0.2,0-0.2
	c0-0.1-0.1-0.1-0.1-0.1c0-0.1,0.1-0.1,0.1-0.1c0,0,0-0.1,0-0.2c0,0-0.1,0-0.2-0.1c-0.1,0-0.2-0.1-0.2-0.1c0-0.1,0-0.1,0-0.3
	c0-0.2,0-0.2,0-0.3c0-0.1-0.1,0-0.2-0.1C10.1,11.1,10.1,10.6,10,10.6z"/>
</svg>
