<?xml version="1.0" encoding="utf-8"?>
<!-- Generator: Adobe Illustrator 24.0.1, SVG Export Plug-In . SVG Version: 6.00 Build 0)  -->
<svg version="1.1" id="Слой_1" xmlns="http://www.w3.org/2000/svg" xmlns:xlink="http://www.w3.org/1999/xlink" x="0px" y="0px"
	 viewBox="0 0 256 256" style="enable-background:new 0 0 256 256;" xml:space="preserve">
<style type="text/css">
	.st0{fill:#DBB077;}
	.st1{fill:#DB5461;}
	.st2{fill:#3D5467;}
	.st3{fill:#000F08;}
</style>
<path class="st0" d="M135.6,96.1c-3.9-3.9-9.8-5-14.7-7.6c-6.8-3.6-21.5-7.4-31-8.2c-30.7-2.5-57.3,22.6-61,26.1
	C1.8,132.6-0.1,166.1,0,172.3c0.2,8.4,1.1,14.2,1.1,14.2c0.8,5.2,1.6,7,2.2,12.5c0.6,5.9-0.1,6,0.5,9.8c1,6,2.7,5.9,4.9,13.1
	c2.3,7.7,1.8,12.3,4.9,13.6c1.5,0.6,2.6,0,4.4,1.1c2,1.3,1.8,2.8,3.3,4.4c1.9,1.9,4.5,2,9.3,2.2c4.9,0.2,5.8-0.8,9.8,0
	c2.3,0.4,2.2,0.8,4.4,1.1c3.9,0.5,5.1-0.5,7.6,0.5c2,0.8,1.4,1.5,3.8,2.7c1.8,0.9,3.6,1.2,7.1,1.6c2.7,0.3,3,0.2,5.4,0.5
	c2.1,0.3,3.1,0.6,5.4,1.1c7.4,1.6,12.2,2.6,14.2,0.5c0.3-0.3,1.1-1.3,1.6-1.1c0.3,0.1,0.3,0.6,0.5,1.1c1,1.6,5.5,1.4,7.1,0
	c0.1-0.1,0.5-0.5,1.1-0.5c0.5,0,0.9,0.4,1.1,0.5c1.4,1.3,5.7,1.3,7.1-0.5c0.5-0.7,0.5-1.5,1.1-1.6c0.4-0.1,0.8,0.3,1.1,0.5
	c1.8,1.5,6.1,0.8,7.1-1.1c0.6-1-0.2-1.9,0.5-2.7c0.4-0.4,0.9-0.5,2.7-0.5c4.7-0.1,5.4,0.2,6,0.5c0.9,0.6,1.4,1.3,1.6,1.6
	c3.5,4.9,16.1,6.9,17.4,7.1c4,0.6,2.2-0.1,12,0.5c6.7,0.5,8.8,0.9,10.3-0.5c2.6-2.4,1.3-7.8,0.5-10.3c0.1,0.3,0.2,0.7,0.5,1.1
	c1.1,1.4,3.2,1.2,7.1,1.1c6.6-0.3,7.5-0.1,8.7-1.1c1.5-1.3,2-3,2.2-3.8c1-4.1-1.1-8.9-4.4-11.4c-3.5-2.7-5.6-0.9-8.7-3.3
	c-3.9-2.9-6.1-9.9-3.8-14.2c2.7-5,9.8-2.8,19.6-7.6c5.9-2.9,9.3-6.7,13.6-11.4c12.9-14.2,17.1-31.7,18.5-39.8c0.7,0.1,1.7,0.2,2.7,0
	c2.4-0.3,4.1-1.5,4.9-2.2c0.7,0.1,2.2,0.2,3.8-0.5c3.4-1.6,3.8-5.7,3.8-6c0.8,0.5,1.8,0.9,2.7,0.5c2.1-0.9,2.5-5.9,1.6-9.8
	c-0.8-3.5-2.4-4.9-2.7-9.3c-0.1-1.2,0-2.1,0-2.7c0.3-7.6-3.8-11.4-4.9-20.7c-0.6-4.8,0.4-5-0.5-9.8c-0.5-2.7-1.3-6.5-3.8-10.3
	c-1.6-2.4-3.4-4-7.1-7.1c-3.3-2.8-5.2-4.4-8.2-6c-4.3-2.3-6-2-10.3-4.9c-1.2-0.8-1.2-0.9-3.8-2.7c-5.4-3.8-6.9-4.3-7.6-3.8
	c-0.5,0.4-0.2,1.1-0.5,1.6c-0.8,1.2-4.2,1-13.6-2.7c0,1.3-0.2,3-1.1,4.9c-0.4,0.9-1.5,2.8-6.5,6.5c-3.1,2.3-4.1,2.5-4.9,3.3
	c-2.5,2.2-3.5,8,2.7,24c-1.6-0.3-10.6-2.3-15.8-10.9c-3.3-5.4-3.4-10.8-3.3-13.1c-0.7-0.3-1.6-0.7-2.7-1.1c-1-0.4-1.5-0.6-1.6-0.5
	c-1.8,0.8,5.1,15.1,0.5,19.6c-0.9,0.9-1.9,1-3.3,2.7c-1.8,2.2-2,4.1-3.3,4.4C136.8,97.3,135.9,96.4,135.6,96.1z"/>
<path class="st1" d="M217.8,6.2c0.4,0.1-3.7,8.1-7.1,20.7c-2.6,9.6-2.9,15.1-7.1,25c-0.8,1.8-3.8,9-4.9,8.7c-1-0.3,0-7.2,1.1-12
	c0.3-1.4,1.2-5.1,4.9-14.2c0.7-1.7,2.1-5.1,6-13.6C214.9,11.8,217.5,6.1,217.8,6.2z"/>
<path class="st1" d="M139.4,0.2c-1.4,0.9-0.9,4.5-0.5,6.5c0.5,3.3,1.7,5.5,2.2,6.5c2.6,5.8,0.5,12,0,14.7
	c-1.1,5.7,1.5,16.3,16.9,37.6c0.5-3.4,1.2-8.2,1.6-14.2c0.8-11.1,1.3-18.7-1.1-27.8c-2.5-9.4-6.4-14.3-7.6-15.8
	C147.3,3.6,141.5-1.1,139.4,0.2z"/>
<path class="st2" d="M180.3,92.8c-1.2,0.6-1.8,1.6-2.2,2.2c-1.5,2.5-1.7,6.5,0.5,8.7c1.4,1.4,3.2,1.5,4.4,1.6
	c2.6,0.2,4.6-0.6,5.4-1.1c0.2-1,0.5-2.5,0.5-4.4c0-2.2,0-3.3-0.5-4.4C187,93,183,91.4,180.3,92.8z"/>
<g>
	<path class="st3" d="M220.6,129.9c0,0.6,0.1,1.2,0.4,1.6c0.3,0.4,0.8,0.5,1.4,0.7c1.4,0.4,2.5,1.3,3.5,2.4c0.2,0.3,0.5,0.5,0.7,0.8
		c0.1,0.1,0.2,0.3,0.3,0.5l0.3,0.5c0.3,0.7,0.4,1.5,0.4,2.3c-0.1,1.5-0.5,2.8-1.1,4c-1.1,2.4-2.7,4.7-4.8,6.3
		c-2.1,1.6-4.6,2.7-7.1,3.2l0-0.2c2.4-0.8,4.7-2,6.5-3.7c1.8-1.7,3.1-3.9,4-6.2c0.4-1.1,0.7-2.3,0.6-3.4c0-0.5-0.2-1-0.3-1.5
		l-0.2-0.3l-0.2-0.4c-0.2-0.2-0.3-0.5-0.5-0.7c-0.7-0.9-1.5-1.8-2.5-2.4c-0.5-0.3-1.3-0.8-1.6-1.5c-0.3-0.8-0.2-1.6,0.2-2.1
		L220.6,129.9z"/>
</g>
<g>
	<path class="st3" d="M234.7,129.8c0.4,1,0.4,2.1,0.1,3.2c-0.3,1.1-1,2-1.8,2.8c-0.8,0.7-1.8,1.2-2.8,1.5c-1,0.3-2.1,0.4-3.1,0.1
		c1.8-1.1,3.3-2,4.6-3.2c0.6-0.6,1.2-1.2,1.7-1.9C233.9,131.6,234.3,130.8,234.7,129.8z"/>
</g>
<g>
	<path class="st3" d="M229.5,151.9c-1.2-0.1-2.4-0.6-3.5-1.3c-0.5-0.3-1-0.8-1.5-1.2c-0.4-0.4-0.8-0.9-1.2-1.2
		c-0.2-0.2-0.3-0.2-0.3-0.1c0,0-0.2,0.2-0.3,0.5c-0.2,0.5-0.5,1.2-0.9,1.7c-0.8,1.1-2.1,1.6-3.3,1.7c1.1-0.5,2.1-1.2,2.6-2.2
		c0.3-0.5,0.5-1,0.7-1.6c0.1-0.3,0.2-0.7,0.7-1c0.2-0.1,0.5-0.1,0.8-0.1c0.2,0.1,0.4,0.2,0.6,0.3c0.5,0.5,0.9,0.9,1.3,1.4
		c0.4,0.4,0.8,0.8,1.2,1.2C227.4,150.7,228.4,151.4,229.5,151.9z"/>
</g>
<path class="st1" d="M123.1,234.9c0.6,0.9,1.5,2.4,2.2,4.4c1.1,3.3,0.7,4.9,1.1,6.5c1.5,5.8,12.9,7.8,18,8.7
	c3.4,0.6,8.4,1.1,14.7,0.5c0.5-0.4,1.1-0.7,1.6-0.5c0.3,0.1,0.5,0.4,0.5,0.5c0.7,1.1,4.3,1.3,6,0c2.5-2.1,1.2-8.5-1.6-12.5
	c-2.3-3.3-5.4-4.8-7.1-5.4c-1.6-1.8-3.3-3.9-4.9-6.5c-4.3-7.1-5.6-14-6-18.5c-0.1,2.5-0.9,11.1-7.6,17.4c-1.8,1.7-6.2,5.9-12.5,6
	C125.6,235.5,124.1,235.2,123.1,234.9z"/>
<path class="st1" d="M41.4,240.4c-0.1-1.3-0.2-6.2,3.3-10.3c3.3-3.8,7.8-4.7,8.7-4.9c1.7-0.3,1.9,0,4.9-0.5c3.3-0.6,5.9-1.4,6.5-1.6
	c2.3-0.8,2.3-1,4.4-1.6c1-0.3,2.7-0.8,4.9-1.1c3.3-0.4,5.9-0.1,6.5,0c0.6,0.1,3.2,0.5,7.1,2.2c3.9,1.7,3.7,2.4,7.6,4.4
	c4.8,2.5,5.7,1.8,10.3,4.4c3.9,2.2,5.6,3.9,6,4.4c1,1.1,2.8,3,3.8,6c1.2,3.5,0.9,6.5,0.5,8.2c-1.4-0.4-2.5-0.8-3.3-1.1
	c-1.1-0.4-1.9-0.8-2.2-0.5c-0.4,0.3,0.3,1.3,0,1.6c-0.4,0.4-1.7-0.7-3.3-0.5c-1,0.1-1.7,0.7-2.2,1.1c-2.2,0.4-3.5,0-4.4-0.5
	c-1.1-0.7-1.7-1.8-2.2-1.6c-0.3,0.1-0.2,0.8-0.5,1.6c-0.4,0.8-1.1,1.3-1.6,1.6c-1.7,0.4-2.9,0.2-3.8,0c-1.3-0.3-2.3-1-3.3-0.5
	c-0.6,0.2-0.9,0.7-1.1,1.1c-1.4-0.1-3.4-0.2-6-0.5c-1.2-0.2-1.8-0.3-3.3-0.5c-2.6-0.4-5.4-0.9-7.1-1.1c-6.2-0.8-5.9,0.3-9.3-0.5
	c-3.8-0.9-6.7-2.9-8.2-3.8c-3.9-2.6-4.7-4.5-7.1-4.4c-1.8,0.1-3.4,1.4-4.9,0.5C41.9,241.2,41.6,240.7,41.4,240.4z"/>
<g>
	<path class="st3" d="M85.8,239c0.9,0.8,1.7,1.7,2.5,2.7c0.4,0.5,0.7,0.9,1.1,1.5c0.2,0.3,0.3,0.6,0.3,1c0,0.4,0,0.7,0,1
		c-0.1,1.2-0.1,2.3-0.1,3.6c-0.1,1.3-0.7,2.5-1.5,3.3c0.5-1.1,0.8-2.3,0.7-3.3c-0.1-1.2-0.2-2.4-0.1-3.6c0-0.3,0.1-0.6,0-0.8
		c0-0.2-0.1-0.5-0.2-0.7c-0.2-0.5-0.5-1-0.8-1.5C87,241.1,86.3,240.1,85.8,239z"/>
</g>
<g>
	<path class="st3" d="M90.1,244.5c0.9-0.2,1.9-0.1,2.8,0.2c0.4,0.1,0.9,0.3,1.3,0.6c0.5,0.3,0.8,0.8,0.9,1.4c0.1,0.6,0,1,0,1.4
		c0,0.4,0.1,0.8,0.2,1.2c0.1,0.4,0.3,0.9,0.4,1.4c0,0.5,0,1-0.2,1.4c-0.1-0.5-0.1-0.9-0.3-1.3c-0.1-0.4-0.4-0.7-0.6-1.2
		c-0.2-0.4-0.4-0.9-0.4-1.5c0-0.5,0.1-1,0-1.3c-0.1-0.7-0.8-1.1-1.6-1.5C91.9,244.9,91,244.7,90.1,244.5z"/>
</g>
<g>
	<path class="st3" d="M95,233.6c2.6,1.7,4.9,3.9,7,6.3c2,2.4,3.8,5,5,7.9c-1.9-2.5-3.8-4.9-5.8-7.3C99.2,238.1,97.1,235.9,95,233.6z
		"/>
</g>
<g>
	<path class="st3" d="M107,237.4c1.7,0.6,3.1,1.8,4.2,3.2c1.1,1.4,1.8,3.2,1.8,5c-0.8-1.6-1.6-3-2.6-4.4
		C109.4,239.8,108.3,238.6,107,237.4z"/>
</g>
</svg>
