<?xml version="1.0" encoding="utf-8"?>
<svg version="1.1" id="Слой_1" xmlns="http://www.w3.org/2000/svg" xmlns:xlink="http://www.w3.org/1999/xlink" x="0px" y="0px"
	 viewBox="0 0 16 16" style="enable-background:new 0 0 16 16;" xml:space="preserve">
<style type="text/css">
	.st0{fill:#DBB077;}
	.st1{fill:#000F08;}
	.st2{fill:#3D5467;}
	.st3{fill:#8A977D;}
</style>
<path class="st0" d="M14.1,14.2C14.1,14.2,14.1,14.3,14.1,14.2c0.1,0.1,0.2,0.1,0.2,0.2c0.1,0,0.2,0.1,0.2,0.1
	c0.2,0,0.5-0.1,0.7-0.2c0.4-0.3,0.5-0.6,0.6-0.9c0-0.1,0.1-0.2,0.1-0.3c0,0,0-0.2-0.1-0.4c-0.1-0.1-0.1-0.2-0.2-0.2
	c-0.4-0.4-2.5-2.1-3.2-2.7c-0.3-0.2-0.2-0.2-0.6-0.6c-0.5-0.5-1.1-0.9-1.7-1.4c-0.1-0.1-0.7-0.5-1.3-1C8.9,6.7,8.8,6.6,8.7,6.4
	C8.3,6,8.2,5.7,8.1,5.4C8,5.1,7.8,4.7,7.3,4.3c0,0.1,0.1,0.3,0.1,0.5c0,0,0,0.4,0,0.8C7.3,6.3,6.7,7.2,6,7.8
	C5.7,8.1,5.4,8.4,4.9,8.5C4.5,8.6,4.1,8.5,4.1,8.6c0,0,0.2,0,0.5,0.1c0.2,0,0.3,0.1,0.5,0.2C5.3,8.9,5.3,8.9,5.7,9
	C6,9,6.2,9.1,6.5,9.2c0.1,0,0,0,0.7,0.4c0.3,0.2,0.5,0.3,0.7,0.5C8,10.1,8,10.2,8,10.2C8.7,10.9,14,14,14.1,14.2z"/>
<path class="st1" d="M5.6,3C5.2,2.7,4.2,1.9,3.2,1.6C2.9,1.5,2.6,1.5,2.4,1.5C2,1.6,1.7,1.9,1.3,2.2C1.2,2.3,1,2.5,0.7,2.9
	C0.6,3,0.4,3.3,0.2,3.8C0.1,4.2,0,4.4,0,4.7C0,4.9,0.1,5,0.2,5.3C0.4,5.5,0.7,6.1,2.1,7c0.5,0.4,0.6,0.4,0.7,0.4
	c0.7,0.1,1.5-0.5,1.7-0.7C4.8,6.4,5,6.2,5.1,6c0.1-0.1,0.6-0.8,0.8-1.8C6,3.8,6,3.5,5.8,3.3C5.8,3.2,5.7,3.1,5.6,3z"/>
<path class="st2" d="M3.1,7.9C3.2,8,3.2,8.1,3.2,8.1c0.2,0.2,0.5,0.3,0.6,0.3c0.1,0,0.3,0.1,0.7,0c0.7-0.1,1.1-0.5,1.3-0.7
	c0.5-0.4,0.8-0.9,0.9-1.2C6.9,6.3,7.1,6,7.2,5.6c0.1-0.3,0.2-0.7,0.1-1.3c0-0.2-0.1-0.3-0.2-0.4C7,3.9,6.9,3.8,6.8,3.7
	C6.6,3.5,6.4,3.5,6.3,3.4C6.4,3.6,6.4,3.8,6.5,4c0,0.1,0.1,0.5-0.1,0.9c-0.2,0.9-0.8,1.4-1,1.7C5.3,6.7,4.9,7.1,4.4,7.5
	C4.1,7.7,3.9,7.8,3.8,7.8C3.4,7.9,3,7.8,2.8,7.8C2.9,7.8,3,7.9,3.1,7.9z"/>
<path class="st3" d="M7.3,4.3c0.2,0.2,0.4,0.5,0.6,0.8C8.1,5.4,8.2,5.7,8.4,6c0,0.1,0.1,0.1,0.1,0.2c0,0,0.1,0.2,0.2,0.5
	c0,0,0,0,0,0.1c0,0,0,0-0.1,0.1c0,0-0.1,0-0.6-0.3C7.7,6.3,7.6,6.2,7.4,6C7.4,6,7.4,6,7.3,6c0-0.1,0.1-0.3,0.1-0.4
	C7.5,5.1,7.4,4.6,7.3,4.3z"/>
<path class="st3" d="M8,8.2c0.1-0.3,0-0.6-0.1-0.9C7.8,7,7.7,6.9,7.6,6.7C7.5,6.6,7.4,6.5,7.3,6.4c-0.1,0-0.1-0.1-0.2-0.1
	C7,6.6,6.8,7,6.5,7.4C6.2,7.7,5.9,8,5.6,8.2C5.7,8.2,6,8.3,6.2,8.4c0.3,0.1,0.5,0.1,0.6,0.2C6.9,8.6,7.7,8.6,8,8.2z"/>
<path class="st3" d="M4.2,8.6c0,0,0.3,0,0.6-0.1c0.2,0,0.4-0.1,0.5-0.2c0.1,0,0.1,0,0.2,0.1c0.6,0.2,1.1,0.6,1,0.7c0,0-0.1,0-0.2,0
	c-0.1,0-1.2-0.2-1.7-0.5c0,0-0.1-0.1-0.2-0.1C4.3,8.5,4.2,8.6,4.2,8.6z"/>
<ellipse transform="matrix(0.1072 -0.9942 0.9942 0.1072 -1.2914 26.7063)" class="st1" cx="14.2" cy="14.1" rx="0.1" ry="0.2"/>
<path class="st3" d="M9.4,7.1C9.3,7,9.3,7,9.2,7c0,0.1,0.1,0.1,0.1,0.2C9.5,8.1,8.8,8.8,8.7,9C8.6,9.1,8.2,9.6,7.5,9.7
	c-0.1,0-0.2,0-0.2,0c0.1,0,0.1,0.1,0.2,0.1c0.2,0,0.3,0,0.4,0c0.4-0.1,0.6-0.3,0.8-0.4c0.1-0.1,0.2-0.2,0.2-0.2C9,8.9,9.8,8,9.5,7.2
	C9.4,7.2,9.4,7.1,9.4,7.1z"/>
<path class="st1" d="M14.2,14.3c0,0,0.1,0.1,0.2,0.1c0,0,0.2,0.1,0.3,0.1c0.3,0,0.5-0.1,0.6-0.2c0.3-0.2,0.5-0.5,0.6-0.6
	c0.1-0.2,0.2-0.4,0.2-0.5c0-0.1,0-0.1,0-0.2c0-0.2-0.1-0.4-0.2-0.5c0,0-0.1-0.1-0.1-0.1c0,0.1,0.1,0.1,0.1,0.2c0,0,0.1,0.3,0,0.6
	c-0.1,0.6-0.6,0.9-0.7,0.9c-0.2,0.1-0.3,0.1-0.3,0.2C14.5,14.4,14.3,14.3,14.2,14.3z"/>
</svg>
