<?xml version="1.0" encoding="utf-8"?>
<svg version="1.1" id="id1" xmlns="http://www.w3.org/2000/svg" xmlns:xlink="http://www.w3.org/1999/xlink" x="0px" y="0px"
	 viewBox="0 0 16 16" style="enable-background:new 0 0 16 16;" xml:space="preserve">
<style type="text/css">
	.st0{fill:#DBB077;}
	.st1{fill:none;stroke:#8A977D;stroke-miterlimit:10;}
	.st2{fill:#3D5467;}
	.st3{display:none;}
	.st4{display:inline;fill:#92935F;}
	.st5{display:none;fill:#8D5F95;}
</style>
<g id="clocks">
	<path class="st0" d="M8,8V0.5l0,0c2,0,3.9,0.8,5.3,2.2L8,8z"/>
	<circle class="st1" cx="8" cy="8" r="7.5"/>
</g>
<g id="arrow">
	<g>
		<path class="st2" d="M8,0.5C7.8,0.7,7.6,1.2,8,1.6C8.4,1.2,8.2,0.7,8,0.5z"/>
		<path class="st2" d="M8,1.2c0,0.1-0.1,0.3-0.2,0.4c0,0.1-0.1,0.2-0.1,0.2c-0.3,0.4-0.2,1.7,0,3.1c0.1,1,0.2,2.1,0.1,2.8
			c0,0.1-0.1,0.2,0,0.2c0,0,0.3,1.1,0.3,0.9c0,0.2,0.2-0.9,0.3-0.9c0.1,0,0-0.1,0-0.2C8,5.8,8.8,2.4,8.3,1.7c0,0-0.1-0.1-0.2-0.2
			C8.1,1.3,8,1.3,8,1.2z"/>
	</g>
	<g>
		<path class="st2" d="M12.5,8.8c-0.2-0.2-0.7-0.4-1.1,0C11.9,9.2,12.3,8.9,12.5,8.8z"/>
		<path class="st2" d="M11.8,8.8l1.4-0.3l0,0c-0.3-0.2-1.2,0-1.2,0c-1.6,0.3-2.6,0.1-2.8,0.1C9,8.6,8.9,8.5,8.9,8.6
			c0,0-1.1,0.3-0.9,0.3C7.8,8.8,8.9,9,8.9,9.1c0,0.1,0.1,0,0.2,0c1.9-0.2,3.5,0.6,4,0.1C13.2,9.1,11.8,8.8,11.8,8.8z"/>
	</g>
	<g class="st3">
		<path class="st4" d="M11.8,0.5c-0.2,0.2-0.4,0.7,0,1.1C12.1,1.2,11.9,0.7,11.8,0.5z"/>
		<path class="st4" d="M11.8,1.2c0,0.1-0.1,0.3-0.2,0.4s-0.2,0.2-0.2,0.2c-0.3,0.4-0.2,1.7,0,3.1c0.1,1,0.2,2.1,0.1,2.8
			c0,0.1,0,0.1,0,0.2c0,0,0.3,0.2,0.3,0.2S12,7.9,12,7.8c-0.3-1.9,0.6-5.4,0-6.1c0,0-0.1-0.1-0.2-0.2C11.8,1.3,11.8,1.3,11.8,1.2z"
			/>
	</g>
	<path class="st5" d="M8.2,1.7c0,0-0.1-0.1-0.1-0.2l0,0c0.3-0.5,0.1-0.8-0.1-1c-0.2,0.2-0.4,0.6-0.1,1l0,0C7.8,1.6,7.8,1.7,7.8,1.7
		c-0.2,0.4-0.1,1.7,0,3.1c0.1,1.1,0.1,2.3,0,3.1C7.9,8,7.9,8,8,8s0.1,0,0.2,0C8,6.2,8.6,2.4,8.2,1.7z"/>
</g>
</svg>
